<svg xmlns="http://www.w3.org/2000/svg" viewBox="0 0 456.24 398.93"><defs><style>.cls-1{fill:#4f4f4f;}.cls-2{fill:#eb8a22;}</style></defs><g id="Layer_2" data-name="Layer 2"><g id="Layer_1-2" data-name="Layer 1"><path class="cls-1" d="M163.93,314.64q-35-.12-70-.21c-25,0-50,0-75,0-11.71,0-19-7.29-19-18.95V19C0,7.49,7.14.2,18.53.19Q227.26.18,436,0c12.54,0,20.3,9.42,20.25,20.5q-.58,137.23,0,274.47a19.88,19.88,0,0,1-19.67,19.66c-46.66-.47-93.32-.21-140-.2-1.49,0-3,.14-4.48.21-5-.06-10-.16-14.95-.16Q220.53,314.54,163.93,314.64ZM228.51,16.28q-103.24,0-206.49-.14c-5.22,0-6.12,1.48-6.12,6.32q.22,135,0,270c0,4.65.86,6.09,5.86,6.08q206.23-.22,412.48,0c5,0,5.87-1.44,5.86-6.08q-.21-135.24,0-270.49c0-5.1-1.6-5.8-6.13-5.79Q331.26,16.4,228.51,16.28Z"/><path class="cls-1" d="M292.09,367.45q18.74.09,37.46.18c6.37,0,8.25,1.94,8.29,8.38,0,4.83,0,9.66,0,14.49,0,6.78-1.68,8.41-8.65,8.42H128.84c-9.88,0-10.65-.8-10.66-10.91,0-4,0-8,0-12,.06-6.46,1.9-8.33,8.29-8.37q18.72-.12,37.46-.18c3,.05,6,.16,9,.15Q232.5,367.55,292.09,367.45Z"/><path class="cls-2" d="M292.09,367.45q-59.59.09-119.19.16c-3,0-6-.1-9-.15V314.64q56.61-.09,113.21-.16c5,0,10,.1,14.95.16Z"/><path class="cls-1" d="M350.28,235.49c-.92,2.51.43,3.86,2.81,5.17q15.77,8.63,31.32,17.62c2.11,1.21,3.53,1.36,5.72-.23,6.5-4.71,12.87-4.23,18.66.86,5.36,4.71,7,11.73,4.17,17.6-3.3,6.8-10.36,10.54-17.2,9.1-6.4-1.35-12.5-7.9-12.37-14.56.08-3.79-1.53-5.17-4.36-6.71q-15.34-8.35-30.45-17.12c-2.12-1.23-3.52-1.41-5.69.1-5.52,3.83-11.32,3.59-16.7-.4a5.15,5.15,0,0,0-5.84-.8c-8.28,3.48-16.63,6.78-25,10-2.09.81-3,1.77-3.29,4.22a15.79,15.79,0,0,1-16.27,14.32c-7.7-.43-14.56-7.52-14.56-15.68,0-2.86-1.07-4.15-3.31-5.36-4.09-2.23-8.19-4.48-12.07-7-4.66-3.08-8.79-5.52-14.36-1.08-3.2,2.54-7.87,1.88-11.4-.38-2.7-1.73-4.37-1-6.52.67-6.69,5.23-13.43,10.4-20.28,15.43-2,1.49-2.62,2.84-2,5.39,1.64,7.11-2.33,14.22-9.31,17.42-6.1,2.79-13.17.83-17.79-4.94a14.3,14.3,0,0,1-.2-18.39c4.72-6.18,11.65-8.12,18.6-4.81,2.16,1,3.55.92,5.36-.5q10.83-8.44,21.85-16.66c1.52-1.13,1.86-2.07,1.52-4.07-1.62-9.48,4.84-18.15,13.83-19,8.7-.82,16.61,6.87,16.71,16.6a4.3,4.3,0,0,0,2.53,4.27c6.21,3.55,12.41,7.13,18.53,10.84,1.84,1.11,3,.93,4.79-.33,6.94-4.9,12.62-4.64,19,.76,1.7,1.43,2.92,2.12,5.23,1.14,8.11-3.45,16.29-6.74,24.56-9.78,2.71-1,2.66-2.64,2.77-4.94.4-8.36,8.24-15.75,16.07-15.43C343.44,219.13,350.43,226.81,350.28,235.49Z"/><path class="cls-2" d="M284.08,104a69.86,69.86,0,0,1,14.18-41.74c1.81-2.41,2.95-2.92,5.23-.44,4.39,4.77,9,9.32,13.75,13.77,2,1.87,1.9,3.22.51,5.46-9.4,15.17-9.3,30.42.15,45.55,1.1,1.76,1.6,3-.17,4.69-5,4.84-10,9.76-14.82,14.83-2.31,2.45-3.29.72-4.53-.9A68.37,68.37,0,0,1,284.08,104Z"/><path class="cls-1" d="M351.54,171.62a69,69,0,0,1-41-14.19c-2.56-1.92-2.59-3.06-.27-5.21,4.76-4.41,9.35-9,13.8-13.76,1.89-2,3.17-1.84,5.4-.43,12.93,8.21,26.49,9.09,40.39,2.66,2.29-1.07,3.45-.82,4.88,1.17,3.88,5.41,7.85,10.76,12,16,1.84,2.32,1.53,3.45-1,4.86A69.51,69.51,0,0,1,351.54,171.62Z"/><path class="cls-1" d="M158.51,87.73c-18.72-13-38.29-14-58.33-3.56-3.77,2-6,2.06-8.6-1.23-1.65-2-4-3.55-6.3-5.58,18.82-16,39.53-21.7,62.91-17.33,12.49,2.33,23.53,7.89,33.43,15.88,2.73,2.2,2.58,3.48.16,5.67A103.89,103.89,0,0,0,171.21,92.2c-3.13,3.8-5.34,3.42-7.64-.51,1.8-6.1,6-11.24,6.71-17.92Z"/><path class="cls-2" d="M412.57,103.59c8-.41,8-.41,7.2,6.59-2,16.44-8.65,30.59-20.47,42.29-2,1.95-3.1,2.26-4.87-.28-3.81-5.46-7.87-10.75-12-16-1.51-1.93-1.48-3.14.25-5a38.57,38.57,0,0,0,10.23-22.82c.25-2.58,1.27-3.43,3.66-3.57C402.24,104.43,407.88,103.94,412.57,103.59Z"/><path class="cls-1" d="M194.19,131.56c-4.67,0-10.17,1.53-13.76-.43s-1-8.14-2.2-12.39c-1.39-5-2.73-10-5.33-14.44-1.16-2-.87-3.2.7-4.72,4.67-4.51,9.29-9.09,13.78-13.78,1.69-1.77,2.68-1.7,4.21.19,10,12.4,15.55,26.59,17.3,42.37.31,2.77-.63,3.44-3.21,3.32-3.82-.18-7.66-.05-11.49-.05Z"/><path class="cls-1" d="M133.1,168.54q-27.7,0-55.41,0a22,22,0,0,1-4-.13,3.94,3.94,0,0,1,0-7.74,16.41,16.41,0,0,1,3-.13L189,159.6a22.52,22.52,0,0,1,3.49.08,3.72,3.72,0,0,1,3.46,3.64,3.75,3.75,0,0,1-3.44,4.17,23.94,23.94,0,0,1-4,.12H133.1Z"/><path class="cls-2" d="M158.51,87.73l11.77-14c-.72,6.68-4.91,11.82-6.71,17.92-4.86,10-9.67,20.06-14.63,30-.89,1.78-.25,3.13.25,4.71a12.87,12.87,0,0,1-9.07,16.74c-7.48,2.06-15.83-2.94-17.78-10.64a12.72,12.72,0,0,1,10.09-15.73c3.39-.55,5.3-2.17,7.16-4.6C145.86,104,152.2,95.88,158.51,87.73Z"/><path class="cls-1" d="M135.89,36.57c23.21.48,44,7.8,61.8,22.93,1.4,1.19,4.22,2,1.35,4.82-2.08,2-3.36,2.9-6.06.57A85,85,0,0,0,136.7,43.82,86.18,86.18,0,0,0,79.64,64.25c-1.84,1.53-3.3,3.73-6.09.73-2.23-2.38-1.86-3.38.41-5.3C91.85,44.6,112.52,37.15,135.89,36.57Z"/><path class="cls-1" d="M351.54,187.59q25.2,0,50.4,0c2.85,0,5.79.21,5.93,3.71.18,4.22-3.12,4.34-6.31,4.33q-42.66-.18-85.32-.31c-5.16,0-10.32-.09-15.47-.07-3,0-6.18-.3-6.24-4s3.08-4.09,6.12-4.09q25.44,0,50.89,0Z"/><path class="cls-1" d="M347.05,49.72c0,4,1.13,8.47-.32,11.84s-6.87,2.09-10.15,4c-1.15.66-2.4,1.13-3.58,1.73-6.93,3.58-6.93,3.58-12.7-2.19-3.42-3.41-6.76-6.9-10.27-10.21-1.76-1.67-2.38-2.72,0-4.54a70.34,70.34,0,0,1,33.16-14c3.75-.53,4.16.84,4,3.87s0,6.32,0,9.49Z"/><path class="cls-1" d="M395.81,95.23c-2.69.79-3.57-.45-4.18-2.82a35.58,35.58,0,0,0-6.9-13.72c-1.21-1.49-1.61-2.55-.07-4.2q7.33-7.86,14.33-16c1.55-1.81,2.44-1.48,3.83.09a69.28,69.28,0,0,1,15.92,31.76c.54,2.46-.21,3.16-2.66,3.3C409.27,94,402.48,94.69,395.81,95.23Z"/><path class="cls-2" d="M359.18,36.2a67.73,67.73,0,0,1,31.94,11.93c2,1.36,2.22,2.39.5,4.24-4.77,5.11-9.42,10.33-14,15.61-1.37,1.58-2.45,1.7-4.19.57a33.59,33.59,0,0,0-13.38-5.16c-2.44-.38-3.2-1.6-3.14-4,.16-6.65,0-13.31.06-20C357,37.56,356.53,35.26,359.18,36.2Z"/><path class="cls-1" d="M96,247.2q-15.47,0-30.94,0c-3.12,0-6.59,0-6.56-4.18,0-3.81,3.28-3.94,6.26-3.94q31.19,0,62.38,0c3,0,6.25.07,6.31,3.9.06,4.12-3.36,4.24-6.51,4.23C116.67,247.18,106.35,247.2,96,247.2Z"/><path class="cls-1" d="M95.77,222.62c-10.48,0-21,0-31.45,0-2.93,0-5.72-.38-5.78-3.87-.07-3.83,2.89-4.2,6-4.19q31.46.06,62.92,0c3.08,0,6.1.35,6,4.16s-3.25,3.9-6.24,3.89C116.75,222.59,106.26,222.62,95.77,222.62Z"/><path class="cls-1" d="M231.39,125.72c-1.1,2.07,3.09,6.39-3.1,6.74-3.71.21-3.91-1.6-4-4.45a86,86,0,0,0-17-48,27.81,27.81,0,0,0-3.75-4.63c-3-2.56-1.54-4.17.63-6.27,3-2.92,3.68.39,4.76,1.66C222.31,86.51,229.62,104.85,231.39,125.72Z"/><path class="cls-1" d="M40.45,129.05c1.18-22.58,8.77-42.16,23.23-59,1.08-1.26,2-3.53,4.11-1.05,1.51,1.76,3.94,2.76,1.22,5.89a84.52,84.52,0,0,0-21.25,54c-.12,3.43-1.78,3.53-4.39,3.59C40.26,132.53,40.26,130.75,40.45,129.05Z"/><path class="cls-1" d="M63,125.7a70.51,70.51,0,0,1,15.3-40.76c1.93-2.45,3-2.6,5.28-.3,6,6.07,6.09,5.93.7,12.22a57.42,57.42,0,0,0-13.37,29.08c-.46,3,0,6.3-5,5.8C60.34,131.21,64.38,127.26,63,125.7Z"/><path class="cls-1" d="M85.5,260.56c7,0,13.94,0,20.92,0,3,0,5.57.65,5.48,4.15-.09,3.13-2.48,3.9-5.29,3.9q-21.42-.06-42.84,0c-2.85,0-5.19-.86-5.23-4,0-3.47,2.53-4.13,5.54-4.09C71.21,260.61,78.36,260.56,85.5,260.56Z"/></g></g></svg>