<svg xmlns="http://www.w3.org/2000/svg" viewBox="0 0 430.65 472.28"><defs><style>.cls-1{fill:#01d0d0;}.cls-2{fill:#299bc2;}.cls-3{fill:#ee905a;}.cls-4{fill:#555a6d;}.cls-5{fill:#f8b890;}.cls-6{fill:#463c4b;}.cls-7{fill:#03d1d1;}.cls-8{fill:#04d1d1;}.cls-9{fill:#289ac2;}.cls-10{fill:#ef915a;}.cls-11{fill:#d4e4ee;}</style></defs><g id="Layer_2" data-name="Layer 2"><g id="Layer_1-2" data-name="Layer 1"><path class="cls-1" d="M220.62,296c-41.87,3-78.35-9.16-107.29-40.09-26.93-28.79-38-63.26-33.83-102.61,5.51-52.39,45.86-99.48,102-110.68a127.47,127.47,0,0,1,33.25-2.31c3.74,1.66,7.81.92,11.71,1.54,33.27,5.27,60.25,21.32,80.89,47.6,24,30.59,32.27,65.65,24.89,103.63-5.49,28.28-19.33,52.34-41.4,71.55A131.3,131.3,0,0,1,237,292.75C231.65,294.17,226.1,295,220.62,296ZM206,264.12c53.2.88,95.46-42.86,96.59-92.81,1.27-56.14-42.59-98.65-95.05-99-54.71-.36-96.26,43-96.88,95.2C110,221.1,154.7,264.63,206,264.12Z"/><path class="cls-2" d="M220.62,296c5.48-1.07,11-1.86,16.42-3.28a131.3,131.3,0,0,0,53.8-28.09c22.07-19.21,35.91-43.27,41.4-71.55,7.38-38-.87-73-24.89-103.63-20.64-26.28-47.62-42.33-80.89-47.6-3.9-.62-8,.12-11.71-1.54,24.7-.69,49.36-.7,72.57,9.62,45.31,20.16,72.61,54.63,78.22,104,7.57,66.71-34.84,124.72-100.21,139.55C250.57,296.87,235.59,296.42,220.62,296Z"/><path class="cls-3" d="M220.63,408.18c7.83,0,15.66-.09,23.48.1a8.74,8.74,0,0,0,7-3q27.63-27.84,55.46-55.48c9.33-9.24,22.85-6.52,27.15,5.28,2.13,5.87,1.09,11.41-3.21,15.75Q299,402.64,267.22,434.1c-4.59,4.56-10.44,6.16-16.89,6.14-23.65-.07-47.3,0-71-.08a9.73,9.73,0,0,0-7.86,3.29c-4.1,4.35-8.48,8.44-12.75,12.64l-23.9-23q-.08-.39-.12-.78c6-5.94,12.14-11.8,18.05-17.86A16.63,16.63,0,0,1,165.6,409c16.6.18,33.2.09,49.81,0C217.16,409,219.09,409.68,220.63,408.18Z"/><path class="cls-4" d="M134.75,432.27q0,.39.12.78C121.29,445.5,108.5,458.75,95.7,472q-35.73.13-71.46.26c-8,0-16,0-24.24,0,.16-2.27,2-3.14,3.13-4.32Q40.54,430.42,78,393c7-7,9.42-7.09,16.75-.83C107.73,405.89,121.23,419.09,134.75,432.27Z"/><path class="cls-5" d="M134.75,432.27c-13.52-13.18-27-26.38-40-40.12q9.06-9,18.11-17.9a47.31,47.31,0,0,1,34.15-14c22-.16,44-.06,65.93,0,13,0,23.31,8.23,25.51,20.22,2,11-4.53,21.76-16.31,26.68a8.31,8.31,0,0,0-1.54,1.09c-1.54,1.5-3.47.84-5.22.85-16.61.05-33.21.14-49.81,0a16.63,16.63,0,0,0-12.8,5.42C146.89,420.47,140.78,426.33,134.75,432.27Zm66.88-48.21c0,10.93,2.21,14,10.06,14,9.4,0,16-5.52,16-13.39,0-8.7-5.48-13.56-15.36-13.56C203.25,371.1,201.62,373.07,201.63,384.06Z"/><path class="cls-6" d="M95.7,472c12.8-13.23,25.59-26.48,39.17-38.93l23.9,23c5.41,6.38,5.91,9.51,2.25,13.85a5.58,5.58,0,0,1-4.63,2.34C136.16,472.13,115.93,472.07,95.7,472Z"/><path class="cls-7" d="M118.77,0a15.22,15.22,0,0,1,13.36,7.41c3,4.78,5.91,9.66,8.48,14.7,4.19,8.21,1.47,17.29-6.17,21.6s-16.76,1.85-21.64-6.05a140.58,140.58,0,0,1-8.57-15.21A15.75,15.75,0,0,1,118.77,0Z"/><path class="cls-8" d="M328,0c10.07,0,18,11.55,13.22,22a117.29,117.29,0,0,1-9.94,17.29c-4.39,6.45-13.26,8.18-20.09,4.53-7.11-3.8-10.57-12.23-7.46-19.6a89.69,89.69,0,0,1,10.7-18.55C317.39,1.8,321.66,0,328,0Z"/><path class="cls-7" d="M142.62,306.68a15.08,15.08,0,0,1-2.09,8.13c-2.67,4.8-5.31,9.62-8.26,14.24-4.84,7.58-13.88,9.86-21.38,5.64a15.67,15.67,0,0,1-6.36-21.12,148.13,148.13,0,0,1,9.27-15.95,15.34,15.34,0,0,1,17.66-5.94A16,16,0,0,1,142.62,306.68Z"/><path class="cls-7" d="M318.87,291a15.12,15.12,0,0,1,13.31,7.48c3,4.79,5.89,9.67,8.47,14.7,4.17,8.15,1.38,17.28-6.3,21.55-7.51,4.19-16.51,1.87-21.33-5.76a143,143,0,0,1-8.63-15.17A15.75,15.75,0,0,1,318.87,291Z"/><path class="cls-7" d="M38.57,184.17c-3,0-6,.14-9,0a15.82,15.82,0,0,1-14.83-14.31C14,162.09,18.89,154.62,26.6,153A61,61,0,0,1,50.41,153,15.38,15.38,0,0,1,62.56,170a15.89,15.89,0,0,1-15.5,14.15c-2.83.11-5.66,0-8.49,0Z"/><path class="cls-7" d="M406.41,184.18c-2.83,0-5.67.11-8.49,0a15.89,15.89,0,0,1-15.15-14c-.94-7.68,3.84-15.37,11.51-17a58.39,58.39,0,0,1,24.76,0c7.49,1.62,12.23,9,11.55,16.54a15.84,15.84,0,0,1-14.69,14.45c-3.15.2-6.33,0-9.49,0Z"/><path class="cls-9" d="M206,264.12c-51.31.51-96-43-95.34-96.61.62-52.22,42.17-95.56,96.88-95.2,52.46.35,96.32,42.86,95.05,99C301.47,221.26,259.21,265,206,264.12Zm-44.36-46c0,7.75,5.77,11.21,12.26,8,9.52-4.76,19-9.65,28.29-14.87,3.37-1.89,5.91-1.63,9.13.15,9,5,18.24,9.66,27.37,14.47,3.3,1.73,6.63,2.35,9.87,0s3.52-5.85,2.89-9.47c-1.81-10.48-3.58-21-5.53-31.43a6.52,6.52,0,0,1,2-6.66c7.64-7.2,15.11-14.57,22.65-21.88,2.73-2.65,5-5.51,3.78-9.65-1.26-4.36-4.79-5.67-8.77-6.25-10-1.45-20.06-3.07-30.14-4.18-3.66-.41-5.57-1.91-7.08-5.11-4.26-9-8.86-17.9-13.22-26.88-1.83-3.76-3.82-7.16-8.66-7.09s-6.72,3.61-8.53,7.31c-4.38,9-8.95,17.86-13.21,26.89-1.44,3-3.25,4.46-6.71,4.85-10.24,1.17-20.43,2.81-30.63,4.27-3.83.55-7.16,1.87-8.46,5.94s.78,7,3.54,9.72c7.41,7.19,14.73,14.48,22.28,21.53,2.51,2.34,3.06,4.57,2.42,7.91C165.11,196.68,163.38,207.85,161.65,218.08Z"/><path class="cls-10" d="M201.63,384.06c0-11,1.62-13,10.7-13,9.88,0,15.39,4.86,15.36,13.56,0,7.87-6.6,13.37-16,13.39C203.84,398.06,201.63,395,201.63,384.06Z"/><path class="cls-11" d="M161.65,218.08c1.73-10.23,3.46-21.4,5.58-32.5.64-3.34.09-5.57-2.42-7.91-7.55-7-14.87-14.34-22.28-21.53-2.76-2.68-4.86-5.61-3.54-9.72s4.63-5.39,8.46-5.94c10.2-1.46,20.39-3.1,30.63-4.27,3.46-.39,5.27-1.8,6.71-4.85,4.26-9,8.83-17.91,13.21-26.89,1.81-3.7,3.7-7.24,8.53-7.31s6.83,3.33,8.66,7.09c4.36,9,9,17.85,13.22,26.88,1.51,3.2,3.42,4.7,7.08,5.11,10.08,1.11,20.1,2.73,30.14,4.18,4,.58,7.51,1.89,8.77,6.25,1.2,4.14-1,7-3.78,9.65-7.54,7.31-15,14.68-22.65,21.88a6.52,6.52,0,0,0-2,6.66c1.95,10.46,3.72,20.95,5.53,31.43.63,3.62.4,7.06-2.89,9.47s-6.57,1.76-9.87,0c-9.13-4.81-18.34-9.48-27.37-14.47-3.22-1.78-5.76-2-9.13-.15-9.29,5.22-18.77,10.11-28.29,14.87C167.42,229.29,161.64,225.83,161.65,218.08Z"/></g></g></svg>